# xmcd
#
# Track frame offsets: 
#        187
#        26477
#        40905
#
# Disc length: 874 seconds
#
# Revision: 0
# Processed by: cddbd v1.5PL3 Copyright (c) Steve Scherf et al.
# Submitted via: ExactAudioCopy v0.90b4
#
DISCID=1b036803
DTITLE=LA-PPISCH - PAYA-PAYA
DYEAR=1990
DGENRE=Rock
TTITLE0=PAYA-PAYA
TTITLE1=TOYS
TTITLE2=TANPOPO
EXTD=
EXTT0=
EXTT1=
EXTT2=
PLAYORDER=
